<?xml version="1.0" encoding="UTF-8"?><svg id="visuel" xmlns="http://www.w3.org/2000/svg" viewBox="0 0 1080 1080"><defs><style>.cls-1{fill:#fff;}.cls-2{fill:none;}</style></defs><circle class="cls-2" cx="540.38" cy="539.62" r="539.62"/><path class="cls-1" d="M540.38,982.67c-106.01,0-206.37-34.07-290.22-98.52-5.33-4.1-8.45-10.44-8.45-17.16v-83.68c0-101.22,50.85-194.47,134.37-249.46-30.09-37.25-46.39-83.19-46.39-131.98,0-116.18,94.52-210.7,210.7-210.7s210.7,94.52,210.7,210.7c0,48.78-16.3,94.73-46.39,131.98,83.52,54.99,134.37,148.24,134.37,249.46v83.68c0,6.72-3.12,13.06-8.45,17.16-83.85,64.45-184.21,98.52-290.22,98.52Zm-255.39-126.5c74.47,54.48,162.54,83.21,255.39,83.21s180.91-28.73,255.39-83.21v-72.86c0-94.48-51.82-180.85-135.24-225.41-6.13-3.28-10.31-9.29-11.25-16.18-.94-6.88,1.49-13.8,6.52-18.59,33.53-31.92,51.99-74.99,51.99-121.26,0-92.31-75.1-167.41-167.41-167.41s-167.41,75.1-167.41,167.41c0,46.28,18.46,89.34,51.99,121.26,5.03,4.79,7.46,11.71,6.52,18.59-.94,6.88-5.12,12.9-11.25,16.18-83.42,44.56-135.24,130.93-135.24,225.41v72.86Zm532.42,10.82h0Z"/></svg>