<?xml version="1.0" standalone="no"?>
<!DOCTYPE svg PUBLIC "-//W3C//DTD SVG 20010904//EN"
 "http://www.w3.org/TR/2001/REC-SVG-20010904/DTD/svg10.dtd">
<svg version="1.0" xmlns="http://www.w3.org/2000/svg"
 width="700.000000pt" height="700.000000pt" viewBox="0 0 700.000000 700.000000"
 preserveAspectRatio="xMidYMid meet">
<metadata>
Created by potrace 1.14, written by Peter Selinger 2001-2017
</metadata>
<g transform="translate(0.000000,700.000000) scale(0.100000,-0.100000)"
fill="#000000" stroke="none">
<path d="M522 6981 c-203 -50 -370 -188 -457 -376 -70 -151 -65 99 -65 -3105
0 -3224 -6 -2956 70 -3115 68 -141 173 -246 315 -315 156 -76 -97 -70 3115
-70 3212 0 2959 -6 3115 70 142 69 246 173 315 315 76 156 70 -97 70 3115 0
3212 6 2959 -70 3115 -69 142 -174 247 -315 315 -159 76 110 70 -3122 69
-2748 0 -2902 -1 -2971 -18z m4575 -576 c124 -37 168 -180 101 -327 -45 -98
-98 -168 -224 -298 -66 -69 -145 -159 -176 -200 -90 -123 -271 -400 -334 -511
-119 -213 -234 -497 -269 -663 -19 -95 -19 -131 1 -150 34 -34 80 22 115 139
34 114 390 796 513 985 130 197 344 423 457 479 76 38 158 42 217 12 50 -26
107 -87 128 -136 33 -79 15 -214 -43 -330 -39 -76 -75 -125 -174 -236 -118
-132 -146 -176 -298 -478 -143 -284 -231 -485 -320 -729 -66 -182 -89 -221
-142 -252 -62 -34 -112 -35 -234 -4 -196 50 -421 36 -687 -41 -524 -152 -933
-598 -1024 -1115 -19 -111 -14 -280 11 -375 84 -312 387 -560 760 -620 190
-31 393 -14 577 49 142 48 238 107 338 206 138 136 176 242 130 363 -27 71
-100 148 -164 172 -65 25 -123 16 -249 -38 -138 -59 -204 -76 -325 -84 -182
-11 -309 30 -370 120 -123 178 -53 487 139 618 86 58 250 135 351 163 119 34
231 48 378 48 367 1 649 -178 820 -521 252 -503 103 -1045 -425 -1550 -193
-183 -410 -308 -707 -406 -265 -87 -434 -115 -691 -115 -311 0 -579 64 -851
203 -527 269 -888 754 -1009 1357 -78 385 -80 859 -6 1287 70 409 216 837 392
1150 76 135 390 613 492 748 46 61 122 148 169 193 92 87 246 195 337 237 156
71 259 41 259 -77 0 -103 -49 -206 -244 -513 -225 -355 -327 -613 -269 -677
42 -47 80 -7 170 182 126 264 375 709 504 901 268 400 519 655 717 729 83 32
176 25 234 -16 89 -62 109 -151 64 -284 -29 -83 -63 -137 -185 -293 -48 -62
-107 -141 -131 -177 -49 -72 -230 -413 -412 -776 -131 -260 -142 -300 -104
-358 42 -66 79 -18 216 276 280 603 376 765 689 1163 258 329 364 440 487 513
113 67 207 85 301 57z"/>
</g>
</svg>
